{
    "patcher": {
        "fileversion": 1,
        "appversion": {
            "major": 9,
            "minor": 1,
            "revision": 1,
            "architecture": "x64",
            "modernui": 1
        },
        "classnamespace": "box",
        "rect": [ 174.0, 200.0, 849.0, 480.0 ],
        "boxes": [
            {
                "box": {
                    "color": [ 0.7, 0.4, 0.3, 1.0 ],
                    "id": "obj-3",
                    "maxclass": "newobj",
                    "numinlets": 2,
                    "numoutlets": 1,
                    "outlettype": [ "" ],
                    "patching_rect": [ 733.0, 510.0, 80.0, 22.0 ],
                    "text": "test.equals 1."
                }
            },
            {
                "box": {
                    "color": [ 0.7, 0.4, 0.3, 1.0 ],
                    "id": "obj-4",
                    "maxclass": "newobj",
                    "numinlets": 1,
                    "numoutlets": 1,
                    "outlettype": [ "" ],
                    "patching_rect": [ 733.0, 570.0, 121.0, 22.0 ],
                    "text": "test.assert point_size"
                }
            },
            {
                "box": {
                    "id": "obj-7",
                    "maxclass": "toggle",
                    "numinlets": 1,
                    "numoutlets": 1,
                    "outlettype": [ "int" ],
                    "parameter_enable": 0,
                    "parameter_mappable": 0,
                    "patching_rect": [ 733.0, 540.0, 24.0, 24.0 ]
                }
            },
            {
                "box": {
                    "color": [ 0.7, 0.4, 0.3, 1.0 ],
                    "id": "obj-12",
                    "maxclass": "newobj",
                    "numinlets": 2,
                    "numoutlets": 1,
                    "outlettype": [ "" ],
                    "patching_rect": [ 600.0, 510.0, 80.0, 22.0 ],
                    "text": "test.equals 1."
                }
            },
            {
                "box": {
                    "color": [ 0.7, 0.4, 0.3, 1.0 ],
                    "id": "obj-14",
                    "maxclass": "newobj",
                    "numinlets": 1,
                    "numoutlets": 1,
                    "outlettype": [ "" ],
                    "patching_rect": [ 600.0, 570.0, 121.0, 22.0 ],
                    "text": "test.assert line_width"
                }
            },
            {
                "box": {
                    "id": "obj-15",
                    "maxclass": "toggle",
                    "numinlets": 1,
                    "numoutlets": 1,
                    "outlettype": [ "int" ],
                    "parameter_enable": 0,
                    "parameter_mappable": 0,
                    "patching_rect": [ 600.0, 540.0, 24.0, 24.0 ]
                }
            },
            {
                "box": {
                    "color": [ 0.7, 0.4, 0.3, 1.0 ],
                    "id": "obj-80",
                    "maxclass": "newobj",
                    "numinlets": 1,
                    "numoutlets": 1,
                    "outlettype": [ "" ],
                    "patching_rect": [ 16.5, 420.0, 87.0, 22.0 ],
                    "text": "test.assert dim"
                }
            },
            {
                "box": {
                    "id": "obj-81",
                    "maxclass": "toggle",
                    "numinlets": 1,
                    "numoutlets": 1,
                    "outlettype": [ "int" ],
                    "parameter_enable": 0,
                    "parameter_mappable": 0,
                    "patching_rect": [ 16.5, 390.0, 24.0, 24.0 ]
                }
            },
            {
                "box": {
                    "id": "obj-82",
                    "maxclass": "newobj",
                    "numinlets": 2,
                    "numoutlets": 2,
                    "outlettype": [ "", "" ],
                    "patching_rect": [ 16.5, 360.0, 114.0, 22.0 ],
                    "text": "zl.compare 100 100"
                }
            },
            {
                "box": {
                    "color": [ 0.7, 0.4, 0.3, 1.0 ],
                    "id": "obj-67",
                    "maxclass": "newobj",
                    "numinlets": 2,
                    "numoutlets": 1,
                    "outlettype": [ "" ],
                    "patching_rect": [ 285.0, 360.0, 80.0, 22.0 ],
                    "text": "test.equals 1."
                }
            },
            {
                "box": {
                    "color": [ 0.7, 0.4, 0.3, 1.0 ],
                    "id": "obj-68",
                    "maxclass": "newobj",
                    "numinlets": 1,
                    "numoutlets": 1,
                    "outlettype": [ "" ],
                    "patching_rect": [ 285.0, 420.0, 121.0, 22.0 ],
                    "text": "test.assert point_size"
                }
            },
            {
                "box": {
                    "id": "obj-69",
                    "maxclass": "toggle",
                    "numinlets": 1,
                    "numoutlets": 1,
                    "outlettype": [ "int" ],
                    "parameter_enable": 0,
                    "parameter_mappable": 0,
                    "patching_rect": [ 285.0, 390.0, 24.0, 24.0 ]
                }
            },
            {
                "box": {
                    "color": [ 0.7, 0.4, 0.3, 1.0 ],
                    "id": "obj-70",
                    "maxclass": "newobj",
                    "numinlets": 2,
                    "numoutlets": 1,
                    "outlettype": [ "" ],
                    "patching_rect": [ 152.0, 360.0, 80.0, 22.0 ],
                    "text": "test.equals 1."
                }
            },
            {
                "box": {
                    "color": [ 0.7, 0.4, 0.3, 1.0 ],
                    "id": "obj-71",
                    "maxclass": "newobj",
                    "numinlets": 1,
                    "numoutlets": 1,
                    "outlettype": [ "" ],
                    "patching_rect": [ 152.0, 420.0, 121.0, 22.0 ],
                    "text": "test.assert line_width"
                }
            },
            {
                "box": {
                    "id": "obj-72",
                    "maxclass": "toggle",
                    "numinlets": 1,
                    "numoutlets": 1,
                    "outlettype": [ "int" ],
                    "parameter_enable": 0,
                    "parameter_mappable": 0,
                    "patching_rect": [ 152.0, 390.0, 24.0, 24.0 ]
                }
            },
            {
                "box": {
                    "id": "obj-77",
                    "maxclass": "newobj",
                    "numinlets": 4,
                    "numoutlets": 4,
                    "outlettype": [ "", "", "", "" ],
                    "patching_rect": [ 15.0, 315.0, 173.0, 22.0 ],
                    "text": "route dim line_width point_size",
                    "varname": "gridshape_route"
                }
            },
            {
                "box": {
                    "id": "obj-48",
                    "maxclass": "newobj",
                    "numinlets": 2,
                    "numoutlets": 1,
                    "outlettype": [ "int" ],
                    "patching_rect": [ 120.0, 210.0, 33.0, 22.0 ],
                    "text": "== 0"
                }
            },
            {
                "box": {
                    "color": [ 0.7, 0.4, 0.3, 1.0 ],
                    "id": "obj-49",
                    "maxclass": "newobj",
                    "numinlets": 1,
                    "numoutlets": 1,
                    "outlettype": [ "" ],
                    "patching_rect": [ 120.0, 270.0, 101.0, 22.0 ],
                    "text": "test.assert visible"
                }
            },
            {
                "box": {
                    "id": "obj-50",
                    "maxclass": "toggle",
                    "numinlets": 1,
                    "numoutlets": 1,
                    "outlettype": [ "int" ],
                    "parameter_enable": 0,
                    "parameter_mappable": 0,
                    "patching_rect": [ 120.0, 240.0, 24.0, 24.0 ]
                }
            },
            {
                "box": {
                    "id": "obj-51",
                    "maxclass": "newobj",
                    "numinlets": 2,
                    "numoutlets": 1,
                    "outlettype": [ "int" ],
                    "patching_rect": [ 15.0, 210.0, 33.0, 22.0 ],
                    "text": "== 0"
                }
            },
            {
                "box": {
                    "color": [ 0.7, 0.4, 0.3, 1.0 ],
                    "id": "obj-52",
                    "maxclass": "newobj",
                    "numinlets": 1,
                    "numoutlets": 1,
                    "outlettype": [ "" ],
                    "patching_rect": [ 15.0, 270.0, 90.0, 22.0 ],
                    "text": "test.assert fsaa"
                }
            },
            {
                "box": {
                    "id": "obj-53",
                    "maxclass": "toggle",
                    "numinlets": 1,
                    "numoutlets": 1,
                    "outlettype": [ "int" ],
                    "parameter_enable": 0,
                    "parameter_mappable": 0,
                    "patching_rect": [ 15.0, 240.0, 24.0, 24.0 ]
                }
            },
            {
                "box": {
                    "id": "obj-58",
                    "maxclass": "newobj",
                    "numinlets": 3,
                    "numoutlets": 3,
                    "outlettype": [ "", "", "" ],
                    "patching_rect": [ 15.0, 165.0, 99.0, 22.0 ],
                    "text": "route fsaa visible",
                    "varname": "world_route"
                }
            },
            {
                "box": {
                    "id": "obj-39",
                    "maxclass": "newobj",
                    "numinlets": 2,
                    "numoutlets": 1,
                    "outlettype": [ "int" ],
                    "patching_rect": [ 1035.0, 510.0, 151.0, 22.0 ],
                    "text": "test.float-list.equals 1. 1. 1."
                }
            },
            {
                "box": {
                    "color": [ 0.7, 0.4, 0.3, 1.0 ],
                    "id": "obj-40",
                    "maxclass": "newobj",
                    "numinlets": 1,
                    "numoutlets": 1,
                    "outlettype": [ "" ],
                    "patching_rect": [ 1035.0, 570.0, 95.0, 22.0 ],
                    "text": "test.assert scale"
                }
            },
            {
                "box": {
                    "id": "obj-41",
                    "maxclass": "toggle",
                    "numinlets": 1,
                    "numoutlets": 1,
                    "outlettype": [ "int" ],
                    "parameter_enable": 0,
                    "parameter_mappable": 0,
                    "patching_rect": [ 1035.0, 540.0, 24.0, 24.0 ]
                }
            },
            {
                "box": {
                    "id": "obj-36",
                    "maxclass": "newobj",
                    "numinlets": 2,
                    "numoutlets": 1,
                    "outlettype": [ "int" ],
                    "patching_rect": [ 870.0, 510.0, 151.0, 22.0 ],
                    "text": "test.float-list.equals 0. 0. 0."
                }
            },
            {
                "box": {
                    "color": [ 0.7, 0.4, 0.3, 1.0 ],
                    "id": "obj-37",
                    "maxclass": "newobj",
                    "numinlets": 1,
                    "numoutlets": 1,
                    "outlettype": [ "" ],
                    "patching_rect": [ 870.0, 570.0, 116.0, 22.0 ],
                    "text": "test.assert rotatexyz"
                }
            },
            {
                "box": {
                    "id": "obj-38",
                    "maxclass": "toggle",
                    "numinlets": 1,
                    "numoutlets": 1,
                    "outlettype": [ "int" ],
                    "parameter_enable": 0,
                    "parameter_mappable": 0,
                    "patching_rect": [ 870.0, 540.0, 24.0, 24.0 ]
                }
            },
            {
                "box": {
                    "id": "obj-31",
                    "maxclass": "newobj",
                    "numinlets": 2,
                    "numoutlets": 1,
                    "outlettype": [ "int" ],
                    "patching_rect": [ 300.0, 510.0, 33.0, 22.0 ],
                    "text": "== 0"
                }
            },
            {
                "box": {
                    "color": [ 0.7, 0.4, 0.3, 1.0 ],
                    "id": "obj-32",
                    "maxclass": "newobj",
                    "numinlets": 1,
                    "numoutlets": 1,
                    "outlettype": [ "" ],
                    "patching_rect": [ 300.0, 570.0, 129.0, 22.0 ],
                    "text": "test.assert auto_colors"
                }
            },
            {
                "box": {
                    "id": "obj-35",
                    "maxclass": "toggle",
                    "numinlets": 1,
                    "numoutlets": 1,
                    "outlettype": [ "int" ],
                    "parameter_enable": 0,
                    "parameter_mappable": 0,
                    "patching_rect": [ 300.0, 540.0, 24.0, 24.0 ]
                }
            },
            {
                "box": {
                    "id": "obj-28",
                    "maxclass": "newobj",
                    "numinlets": 2,
                    "numoutlets": 1,
                    "outlettype": [ "int" ],
                    "patching_rect": [ 180.0, 510.0, 33.0, 22.0 ],
                    "text": "== 0"
                }
            },
            {
                "box": {
                    "color": [ 0.7, 0.4, 0.3, 1.0 ],
                    "id": "obj-29",
                    "maxclass": "newobj",
                    "numinlets": 1,
                    "numoutlets": 1,
                    "outlettype": [ "" ],
                    "patching_rect": [ 180.0, 570.0, 111.0, 22.0 ],
                    "text": "test.assert antialias"
                }
            },
            {
                "box": {
                    "id": "obj-30",
                    "maxclass": "toggle",
                    "numinlets": 1,
                    "numoutlets": 1,
                    "outlettype": [ "int" ],
                    "parameter_enable": 0,
                    "parameter_mappable": 0,
                    "patching_rect": [ 180.0, 540.0, 24.0, 24.0 ]
                }
            },
            {
                "box": {
                    "id": "obj-13",
                    "maxclass": "newobj",
                    "numinlets": 2,
                    "numoutlets": 1,
                    "outlettype": [ "int" ],
                    "patching_rect": [ 15.0, 510.0, 151.0, 22.0 ],
                    "text": "test.float-list.equals 0. 0. 0."
                }
            },
            {
                "box": {
                    "id": "obj-6",
                    "maxclass": "newobj",
                    "numinlets": 2,
                    "numoutlets": 1,
                    "outlettype": [ "" ],
                    "patching_rect": [ 435.0, 510.0, 151.0, 22.0 ],
                    "text": "test.string.equals line_strip"
                }
            },
            {
                "box": {
                    "color": [ 0.7, 0.4, 0.3, 1.0 ],
                    "id": "obj-10",
                    "maxclass": "newobj",
                    "numinlets": 1,
                    "numoutlets": 1,
                    "outlettype": [ "" ],
                    "patching_rect": [ 435.0, 570.0, 130.0, 22.0 ],
                    "text": "test.assert draw_mode"
                }
            },
            {
                "box": {
                    "id": "obj-11",
                    "maxclass": "toggle",
                    "numinlets": 1,
                    "numoutlets": 1,
                    "outlettype": [ "int" ],
                    "parameter_enable": 0,
                    "parameter_mappable": 0,
                    "patching_rect": [ 435.0, 540.0, 24.0, 24.0 ]
                }
            },
            {
                "box": {
                    "color": [ 0.7, 0.4, 0.3, 1.0 ],
                    "id": "obj-9",
                    "maxclass": "newobj",
                    "numinlets": 1,
                    "numoutlets": 0,
                    "patching_rect": [ 15.0, 60.0, 81.0, 22.0 ],
                    "text": "test.terminate"
                }
            },
            {
                "box": {
                    "id": "obj-8",
                    "maxclass": "newobj",
                    "numinlets": 1,
                    "numoutlets": 1,
                    "outlettype": [ "bang" ],
                    "patching_rect": [ 15.0, 15.0, 58.0, 22.0 ],
                    "text": "loadbang"
                }
            },
            {
                "box": {
                    "id": "obj-5",
                    "maxclass": "newobj",
                    "numinlets": 9,
                    "numoutlets": 9,
                    "outlettype": [ "", "", "", "", "", "", "", "", "" ],
                    "patching_rect": [ 15.0, 465.0, 452.0, 22.0 ],
                    "text": "route anchor antialias auto_colors draw_mode line_width point_size rotatexyz scale",
                    "varname": "mesh_route"
                }
            },
            {
                "box": {
                    "color": [ 0.7, 0.4, 0.3, 1.0 ],
                    "id": "obj-21",
                    "maxclass": "newobj",
                    "numinlets": 1,
                    "numoutlets": 1,
                    "outlettype": [ "" ],
                    "patching_rect": [ 15.0, 570.0, 104.0, 22.0 ],
                    "text": "test.assert anchor"
                }
            },
            {
                "box": {
                    "id": "obj-20",
                    "maxclass": "toggle",
                    "numinlets": 1,
                    "numoutlets": 1,
                    "outlettype": [ "int" ],
                    "parameter_enable": 0,
                    "parameter_mappable": 0,
                    "patching_rect": [ 15.0, 540.0, 24.0, 24.0 ]
                }
            },
            {
                "box": {
                    "id": "obj-2",
                    "maxclass": "newobj",
                    "numinlets": 1,
                    "numoutlets": 1,
                    "outlettype": [ "" ],
                    "patching_rect": [ 113.0, 60.0, 95.0, 22.0 ],
                    "saved_object_attributes": {
                        "filename": "initialization.js",
                        "parameter_enable": 0
                    },
                    "text": "js initialization.js"
                }
            },
            {
                "box": {
                    "id": "obj-1",
                    "maxclass": "newobj",
                    "numinlets": 0,
                    "numoutlets": 0,
                    "patching_rect": [ 15.0, 120.0, 98.0, 22.0 ],
                    "text": "\"Rutt-Etra Mesh\"",
                    "varname": "testSubject"
                }
            }
        ],
        "lines": [
            {
                "patchline": {
                    "destination": [ "obj-10", 0 ],
                    "source": [ "obj-11", 0 ]
                }
            },
            {
                "patchline": {
                    "destination": [ "obj-15", 0 ],
                    "source": [ "obj-12", 0 ]
                }
            },
            {
                "patchline": {
                    "destination": [ "obj-20", 0 ],
                    "source": [ "obj-13", 0 ]
                }
            },
            {
                "patchline": {
                    "destination": [ "obj-14", 0 ],
                    "source": [ "obj-15", 0 ]
                }
            },
            {
                "patchline": {
                    "destination": [ "obj-21", 0 ],
                    "source": [ "obj-20", 0 ]
                }
            },
            {
                "patchline": {
                    "destination": [ "obj-30", 0 ],
                    "source": [ "obj-28", 0 ]
                }
            },
            {
                "patchline": {
                    "destination": [ "obj-7", 0 ],
                    "source": [ "obj-3", 0 ]
                }
            },
            {
                "patchline": {
                    "destination": [ "obj-29", 0 ],
                    "source": [ "obj-30", 0 ]
                }
            },
            {
                "patchline": {
                    "destination": [ "obj-35", 0 ],
                    "source": [ "obj-31", 0 ]
                }
            },
            {
                "patchline": {
                    "destination": [ "obj-32", 0 ],
                    "source": [ "obj-35", 0 ]
                }
            },
            {
                "patchline": {
                    "destination": [ "obj-38", 0 ],
                    "source": [ "obj-36", 0 ]
                }
            },
            {
                "patchline": {
                    "destination": [ "obj-37", 0 ],
                    "source": [ "obj-38", 0 ]
                }
            },
            {
                "patchline": {
                    "destination": [ "obj-41", 0 ],
                    "source": [ "obj-39", 0 ]
                }
            },
            {
                "patchline": {
                    "destination": [ "obj-40", 0 ],
                    "source": [ "obj-41", 0 ]
                }
            },
            {
                "patchline": {
                    "destination": [ "obj-50", 0 ],
                    "source": [ "obj-48", 0 ]
                }
            },
            {
                "patchline": {
                    "destination": [ "obj-12", 0 ],
                    "source": [ "obj-5", 4 ]
                }
            },
            {
                "patchline": {
                    "destination": [ "obj-13", 0 ],
                    "source": [ "obj-5", 0 ]
                }
            },
            {
                "patchline": {
                    "destination": [ "obj-28", 0 ],
                    "source": [ "obj-5", 1 ]
                }
            },
            {
                "patchline": {
                    "destination": [ "obj-3", 0 ],
                    "source": [ "obj-5", 5 ]
                }
            },
            {
                "patchline": {
                    "destination": [ "obj-31", 0 ],
                    "source": [ "obj-5", 2 ]
                }
            },
            {
                "patchline": {
                    "destination": [ "obj-36", 0 ],
                    "source": [ "obj-5", 6 ]
                }
            },
            {
                "patchline": {
                    "destination": [ "obj-39", 0 ],
                    "source": [ "obj-5", 7 ]
                }
            },
            {
                "patchline": {
                    "destination": [ "obj-6", 0 ],
                    "source": [ "obj-5", 3 ]
                }
            },
            {
                "patchline": {
                    "destination": [ "obj-49", 0 ],
                    "source": [ "obj-50", 0 ]
                }
            },
            {
                "patchline": {
                    "destination": [ "obj-53", 0 ],
                    "source": [ "obj-51", 0 ]
                }
            },
            {
                "patchline": {
                    "destination": [ "obj-52", 0 ],
                    "source": [ "obj-53", 0 ]
                }
            },
            {
                "patchline": {
                    "destination": [ "obj-48", 0 ],
                    "source": [ "obj-58", 1 ]
                }
            },
            {
                "patchline": {
                    "destination": [ "obj-51", 0 ],
                    "source": [ "obj-58", 0 ]
                }
            },
            {
                "patchline": {
                    "destination": [ "obj-11", 0 ],
                    "source": [ "obj-6", 0 ]
                }
            },
            {
                "patchline": {
                    "destination": [ "obj-69", 0 ],
                    "source": [ "obj-67", 0 ]
                }
            },
            {
                "patchline": {
                    "destination": [ "obj-68", 0 ],
                    "source": [ "obj-69", 0 ]
                }
            },
            {
                "patchline": {
                    "destination": [ "obj-4", 0 ],
                    "source": [ "obj-7", 0 ]
                }
            },
            {
                "patchline": {
                    "destination": [ "obj-72", 0 ],
                    "source": [ "obj-70", 0 ]
                }
            },
            {
                "patchline": {
                    "destination": [ "obj-71", 0 ],
                    "source": [ "obj-72", 0 ]
                }
            },
            {
                "patchline": {
                    "destination": [ "obj-67", 0 ],
                    "source": [ "obj-77", 2 ]
                }
            },
            {
                "patchline": {
                    "destination": [ "obj-70", 0 ],
                    "source": [ "obj-77", 1 ]
                }
            },
            {
                "patchline": {
                    "destination": [ "obj-82", 0 ],
                    "source": [ "obj-77", 0 ]
                }
            },
            {
                "patchline": {
                    "destination": [ "obj-2", 0 ],
                    "order": 0,
                    "source": [ "obj-8", 0 ]
                }
            },
            {
                "patchline": {
                    "destination": [ "obj-9", 0 ],
                    "order": 1,
                    "source": [ "obj-8", 0 ]
                }
            },
            {
                "patchline": {
                    "destination": [ "obj-80", 0 ],
                    "source": [ "obj-81", 0 ]
                }
            },
            {
                "patchline": {
                    "destination": [ "obj-81", 0 ],
                    "source": [ "obj-82", 0 ]
                }
            }
        ],
        "parameters": {
            "obj-1::obj-100::obj-1": [ "lineWidth", "Line Width", 0 ],
            "obj-1::obj-100::obj-79": [ "pointSize", "Point Size", 0 ],
            "obj-1::obj-30": [ "meshScale", "Mesh Scale", 0 ],
            "obj-1::obj-31": [ "gridDimY", "Grid y Dimension", 0 ],
            "obj-1::obj-32": [ "lumaX", "Luma x", 0 ],
            "obj-1::obj-36": [ "Refresh Syphon Clients", "Refresh Syphon Clients", 0 ],
            "obj-1::obj-43": [ "lumaZ", "Luma z", 0 ],
            "obj-1::obj-47": [ "lumaY", "Luma y", 0 ],
            "obj-1::obj-49": [ "rotationZ", "Rotation z", 0 ],
            "obj-1::obj-5": [ "rotationY", "Rotation y", 0 ],
            "obj-1::obj-53": [ "rotationX", "Rotation x", 0 ],
            "obj-1::obj-59": [ "anchorX", "Anchor x", 0 ],
            "obj-1::obj-60": [ "anchorZ", "Anchor z", 0 ],
            "obj-1::obj-63": [ "anchorY", "Anchor y", 0 ],
            "obj-1::obj-64": [ "drawMode", "Draw Mode", 0 ],
            "obj-1::obj-7": [ "gridDimX", "Grid x Dimension", 0 ],
            "obj-1::obj-73": [ "Show Window", "Show Window", 0 ],
            "obj-1::obj-74": [ "live.text[2]", "Mesh Anti-Aliasing", 0 ],
            "obj-1::obj-75": [ "live.text[3]", "Mesh Color", 0 ],
            "obj-1::obj-76": [ "Full-screen Anti-aliasing", "FSAA", 0 ],
            "obj-1::obj-93": [ "live.numbox", "live.numbox", 0 ],
            "obj-1::obj-96": [ "live.numbox[1]", "live.numbox[1]", 0 ],
            "parameterbanks": {
                "0": {
                    "index": 0,
                    "name": "",
                    "parameters": [ "-", "-", "-", "-", "-", "-", "-", "-" ],
                    "buttons": [ "-", "-", "-", "-", "-", "-", "-", "-" ]
                }
            },
            "parameter_overrides": {
                "obj-1::obj-100::obj-1": {
                    "parameter_longname": "lineWidth"
                },
                "obj-1::obj-100::obj-79": {
                    "parameter_longname": "pointSize"
                },
                "obj-1::obj-30": {
                    "parameter_longname": "meshScale"
                },
                "obj-1::obj-31": {
                    "parameter_longname": "gridDimY"
                },
                "obj-1::obj-32": {
                    "parameter_longname": "lumaX"
                },
                "obj-1::obj-43": {
                    "parameter_longname": "lumaZ"
                },
                "obj-1::obj-47": {
                    "parameter_longname": "lumaY"
                },
                "obj-1::obj-49": {
                    "parameter_longname": "rotationZ"
                },
                "obj-1::obj-5": {
                    "parameter_longname": "rotationY"
                },
                "obj-1::obj-53": {
                    "parameter_longname": "rotationX"
                },
                "obj-1::obj-59": {
                    "parameter_longname": "anchorX"
                },
                "obj-1::obj-60": {
                    "parameter_longname": "anchorZ"
                },
                "obj-1::obj-63": {
                    "parameter_longname": "anchorY"
                },
                "obj-1::obj-64": {
                    "parameter_longname": "drawMode"
                },
                "obj-1::obj-7": {
                    "parameter_longname": "gridDimX"
                },
                "obj-1::obj-74": {
                    "parameter_longname": "live.text[2]"
                },
                "obj-1::obj-75": {
                    "parameter_longname": "live.text[3]"
                },
                "obj-1::obj-76": {
                    "parameter_longname": "Full-screen Anti-aliasing"
                }
            },
            "inherited_shortname": 1
        },
        "autosave": 0
    }
}